<svg width="190" height="45" viewBox="0 0 190 45" fill="none" xmlns="http://www.w3.org/2000/svg">
<path d="M99.4686 31.6912H96.696C96.3851 31.6912 96.1297 31.6134 95.9301 31.4595C95.7304 31.3055 95.5863 31.1143 95.4963 30.8858L94.056 26.9916H86.0689L84.6302 30.8858C84.5582 31.0884 84.4191 31.2731 84.2096 31.44C84.0001 31.6069 83.7447 31.6912 83.4436 31.6912H80.6562L88.2293 12.6025H91.8956L99.4686 31.6912ZM86.9887 24.4829H93.1345L90.7875 18.1335C90.6811 17.8516 90.5633 17.5193 90.434 17.1369C90.3047 16.7544 90.1786 16.3379 90.0543 15.8891C89.9299 16.3379 89.8071 16.7561 89.6876 17.1434C89.5665 17.5307 89.4503 17.8694 89.3341 18.1611L86.9887 24.4829Z" fill="#151213"/>
<path d="M103.735 12.6217C103.842 12.6346 103.937 12.6622 104.022 12.7011C104.107 12.74 104.189 12.7983 104.269 12.8728C104.349 12.9474 104.437 13.0462 104.536 13.1694L114.655 25.9346C114.619 25.6267 114.595 25.3253 114.582 25.0303C114.569 24.7354 114.562 24.4599 114.562 24.2039V12.6006H117.723V31.6893H115.87C115.585 31.6893 115.349 31.6455 115.163 31.5564C114.976 31.4689 114.793 31.3117 114.616 31.0815L104.537 18.3682C104.564 18.6502 104.585 18.9289 104.596 19.206C104.609 19.4831 104.616 19.7359 104.616 19.9644V31.6876H101.457V12.6022H103.338C103.495 12.6022 103.627 12.6087 103.735 12.6217Z" fill="#151213"/>
<path d="M130.467 29.077C131.275 29.077 131.981 29.0057 132.58 28.8598C133.179 28.7156 133.75 28.5146 134.294 28.2602V24.7889H131.879C131.649 24.7889 131.467 24.7257 131.333 24.5961C131.2 24.4681 131.133 24.3125 131.133 24.1278V22.1215H137.546V29.8435C137.056 30.1952 136.547 30.5014 136.02 30.7607C135.492 31.02 134.927 31.2339 134.328 31.4009C133.727 31.5678 133.086 31.6942 132.402 31.7784C131.717 31.8611 130.979 31.9032 130.189 31.9032C128.784 31.9032 127.491 31.6601 126.31 31.1772C125.128 30.6927 124.105 30.0201 123.242 29.158C122.38 28.2958 121.707 27.2652 121.223 26.0676C120.738 24.8716 120.496 23.5638 120.496 22.1474C120.496 20.7116 120.732 19.3957 121.203 18.1997C121.675 17.0037 122.342 15.9731 123.21 15.1109C124.077 14.2488 125.128 13.5795 126.364 13.103C127.599 12.6282 128.986 12.3916 130.524 12.3916C132.097 12.3916 133.459 12.6217 134.611 13.0836C135.762 13.5454 136.737 14.1467 137.538 14.8857L136.497 16.4965C136.292 16.8222 136.022 16.9859 135.683 16.9859C135.469 16.9859 135.251 16.9146 135.03 16.7736C134.745 16.6067 134.456 16.4398 134.158 16.2729C133.86 16.1059 133.531 15.9601 133.171 15.8369C132.811 15.7138 132.406 15.6117 131.958 15.5323C131.51 15.4529 130.991 15.4123 130.405 15.4123C129.454 15.4123 128.595 15.5712 127.825 15.8872C127.056 16.2048 126.401 16.6569 125.858 17.2468C125.316 17.8367 124.897 18.5449 124.604 19.3714C124.311 20.1979 124.164 21.1232 124.164 22.1442C124.164 23.2445 124.319 24.2234 124.63 25.0806C124.941 25.9379 125.377 26.6623 125.937 27.2522C126.496 27.8421 127.164 28.2926 127.937 28.6054C128.707 28.9198 129.552 29.077 130.467 29.077Z" fill="#151213"/>
<path d="M144.6 20.6016H145.44C145.777 20.6016 146.057 20.5546 146.279 20.4622C146.502 20.3699 146.693 20.2224 146.854 20.0198L152.173 13.3528C152.396 13.0708 152.628 12.8747 152.874 12.7645C153.119 12.6543 153.427 12.5992 153.8 12.5992H156.893L150.401 20.5335C150.196 20.7799 150.001 20.9873 149.815 21.1542C149.628 21.3211 149.428 21.4573 149.214 21.5626C149.507 21.6679 149.772 21.8187 150.008 22.0115C150.243 22.206 150.473 22.4523 150.695 22.7505L157.388 31.6879H154.216C153.789 31.6879 153.471 31.6279 153.262 31.5096C153.052 31.3897 152.877 31.2163 152.735 30.9878L147.281 23.9384C147.104 23.7099 146.903 23.5446 146.682 23.4425C146.459 23.342 146.143 23.2917 145.734 23.2917H144.602V31.6879H141.016V12.5879H144.602V20.6016H144.6Z" fill="#151213"/>
<path d="M176.453 31.6912H173.68C173.369 31.6912 173.114 31.6134 172.914 31.4595C172.715 31.3055 172.571 31.1143 172.482 30.8858L171.042 26.9916H163.055L161.615 30.8858C161.543 31.0884 161.403 31.2731 161.194 31.44C160.984 31.6069 160.729 31.6912 160.428 31.6912H157.641L165.214 12.6025H168.88L176.453 31.6912ZM163.973 24.4829H170.121L167.774 18.1335C167.667 17.8516 167.549 17.5193 167.42 17.1369C167.291 16.7544 167.165 16.3379 167.04 15.8891C166.916 16.3379 166.793 16.7561 166.674 17.1434C166.553 17.5307 166.435 17.8694 166.32 18.1611L163.973 24.4829Z" fill="#151213"/>
<path d="M188.768 16.0739C188.67 16.2683 188.557 16.4028 188.427 16.4822C188.298 16.5617 188.146 16.6022 187.967 16.6022C187.789 16.6022 187.589 16.5341 187.368 16.398C187.146 16.2618 186.884 16.1095 186.581 15.9426C186.28 15.7757 185.925 15.6233 185.522 15.4872C185.118 15.3511 184.64 15.283 184.088 15.283C183.591 15.283 183.157 15.343 182.789 15.4613C182.421 15.5812 182.11 15.7465 181.856 15.9572C181.602 16.1695 181.412 16.4223 181.288 16.7156C181.164 17.0106 181.103 17.3347 181.103 17.6863C181.103 18.1352 181.229 18.5096 181.483 18.8078C181.736 19.1076 182.07 19.362 182.489 19.5743C182.907 19.785 183.383 19.9746 183.917 20.1415C184.45 20.3084 184.995 20.4883 185.55 20.6763C186.106 20.8659 186.652 21.0847 187.183 21.3358C187.717 21.587 188.192 21.9047 188.611 22.2871C189.028 22.6696 189.364 23.1379 189.617 23.6922C189.871 24.2464 189.997 24.9189 189.997 25.7114C189.997 26.5735 189.848 27.3822 189.55 28.1341C189.252 28.8861 188.817 29.5408 188.242 30.0999C187.67 30.659 186.969 31.0998 186.143 31.4206C185.316 31.7415 184.37 31.9019 183.303 31.9019C182.689 31.9019 182.085 31.842 181.489 31.7237C180.894 31.6054 180.324 31.4368 179.776 31.2148C179.229 30.9944 178.717 30.7303 178.242 30.4224C177.767 30.1145 177.342 29.7709 176.969 29.3933L178.008 27.6901C178.106 27.5669 178.224 27.4648 178.362 27.3806C178.499 27.2979 178.651 27.2558 178.821 27.2558C179.044 27.2558 179.283 27.3465 179.542 27.5264C179.799 27.7079 180.105 27.9072 180.455 28.1276C180.807 28.348 181.219 28.5474 181.694 28.7289C182.17 28.9104 182.741 28.9995 183.408 28.9995C184.429 28.9995 185.221 28.7597 185.781 28.28C186.341 27.8003 186.62 27.1115 186.62 26.2138C186.62 25.7114 186.494 25.303 186.241 24.987C185.987 24.6694 185.651 24.4036 185.234 24.188C184.817 23.9725 184.34 23.791 183.807 23.6403C183.273 23.4896 182.732 23.3275 182.18 23.1509C181.628 22.9759 181.088 22.7636 180.555 22.5172C180.021 22.2725 179.545 21.95 179.128 21.553C178.71 21.1576 178.373 20.6617 178.121 20.0686C177.867 19.4738 177.741 18.7413 177.741 17.8711C177.741 17.1758 177.882 16.4985 178.162 15.8389C178.442 15.1777 178.851 14.5927 179.388 14.0822C179.925 13.5733 180.586 13.1633 181.368 12.8554C182.149 12.5475 183.043 12.3936 184.048 12.3936C185.185 12.3936 186.234 12.5686 187.195 12.9219C188.154 13.2735 188.972 13.7662 189.647 14.3998L188.768 16.0739Z" fill="#151213"/>
<path d="M46.3101 0.00527003H35.3998C35.3998 0.00527003 34.1804 -0.114652 34.2115 0.789625C34.2426 1.6939 34.2115 1.87541 34.2115 1.87541C34.2115 1.87541 34.2737 2.56901 35.187 2.44909L38.6912 2.46367C38.6912 2.46367 40.2461 2.53984 40.9155 3.53649C40.9155 3.53649 41.1905 4.3808 42.0432 4.01942C42.8959 3.65803 46.6456 0.700494 46.6456 0.700494C46.6456 0.700494 47.3461 0.000408326 46.3101 0.00527003Z" fill="#10AEE5"/>
<path d="M42.959 5.22647C42.959 5.22647 42.1062 5.82933 42.7151 6.88594C43.3239 7.94255 46.982 16.8735 46.982 16.8735L42.7757 32.8361C42.7757 32.8361 42.6234 33.5005 41.8002 33.5005C40.9769 33.5005 35.8884 33.5005 35.8884 33.5005C35.8884 33.5005 35.1273 33.5605 34.9734 32.9576C34.8212 32.3548 30.6149 23.03 30.6149 23.03C30.6149 23.03 30.3399 22.2765 29.5788 22.1549C28.8178 22.035 3.49127 16.6336 3.49127 16.6336C3.49127 16.6336 2.42413 16.3614 2.24246 17.0858C2.05915 17.8102 2.21136 17.8701 2.7302 18.5637C3.24904 19.2573 13.2444 32.9268 13.2444 32.9268C13.2444 32.9268 15.2249 36.0043 18.7602 36.0351C22.2955 36.0659 47.3454 36.0351 47.3454 36.0351C47.3454 36.0351 48.4747 35.9443 48.4141 34.4356C48.3536 32.9268 49.6007 27.9485 54.0199 25.4738L58.0118 35.7029C58.0118 35.7029 58.8645 36.7595 59.9006 36.2166C60.9366 35.6737 60.845 34.6171 60.845 34.6171L56.8219 24.4172C56.8219 24.4172 58.529 23.9035 65.2935 24.1758C65.2935 24.1758 67.2445 23.8144 65.9024 22.3056C64.5603 20.7969 49.2063 2.05502 49.2063 2.05502C49.2063 2.05502 48.5516 1.25446 47.5909 2.05502C46.527 2.93985 42.959 5.22647 42.959 5.22647Z" fill="#10AEE5"/>
<path d="M1.20512 14.414C1.20512 14.414 -0.166448 14.1872 0.0168643 12.7854C0.236184 11.1097 2.30335 10.7483 2.94331 10.7937C3.58326 10.8391 27.4449 10.7905 27.4449 10.7905C27.4449 10.7905 32.1374 11.2167 31.6054 15.1384L30.5546 19.3033C30.5546 19.3033 30.463 20.6613 28.9098 20.4344C27.3532 20.2076 1.20512 14.414 1.20512 14.414Z" fill="#10AEE5"/>
<path d="M59.241 26.1953C59.0969 26.1953 58.9529 26.2002 58.8089 26.2067L60.0806 29.4332C62.9579 29.8383 65.1708 32.2854 65.1708 35.2446C65.1708 38.4873 62.516 41.1159 59.241 41.1159C55.9659 41.1159 53.3112 38.4873 53.3112 35.2446C53.3112 33.6661 53.9413 32.2335 54.9642 31.1786L53.7334 28.0233C51.5271 29.6747 50.1016 32.2951 50.1016 35.2446C50.1016 40.2424 54.1933 44.2938 59.241 44.2938C64.2886 44.2938 68.3804 40.2424 68.3804 35.2446C68.3804 30.2467 64.2886 26.1953 59.241 26.1953Z" fill="#202020"/>
<path d="M15.6339 41.1157C12.3588 41.1157 9.70405 38.4871 9.70405 35.2444C9.70405 33.922 10.146 32.7033 10.8907 31.7213C10.3473 30.9774 9.6795 30.065 8.95444 29.0732C7.43066 30.6906 6.49609 32.8589 6.49609 35.2444C6.49609 40.2422 10.5879 44.2936 15.6355 44.2936C19.9941 44.2936 23.6374 41.2729 24.5507 37.2296C23.2315 37.2296 22.1202 37.2279 21.2183 37.2263C20.3951 39.4935 18.2051 41.1157 15.6339 41.1157Z" fill="#202020"/>
</svg>
