<svg width="144" height="27" viewBox="0 0 144 27" fill="none" xmlns="http://www.w3.org/2000/svg">
<path d="M42.3531 3.05176e-05C33.8828 3.05176e-05 28.1382 5.88643 28.1382 13.1613C28.1382 21.1282 34.6675 26.312 42.3531 26.312C50.0388 26.312 56.5673 21.1282 56.5673 13.1613C56.5673 5.88643 50.8227 3.05176e-05 42.3531 3.05176e-05ZM42.3531 19.4666C39.9719 19.4666 38.7109 16.6462 38.7109 13.1611C38.7109 9.62577 39.9719 6.76566 42.3531 6.76566C44.7579 6.76566 46.032 9.62577 46.032 13.1611C46.032 16.9687 44.7579 19.4666 42.3531 19.4666Z" fill="black"/>
<path d="M72.6597 3.05176e-05C64.1894 3.05176e-05 58.4455 5.88643 58.4455 13.1613C58.4455 21.1282 64.9738 26.312 72.6597 26.312C80.3445 26.312 86.8738 21.1282 86.8738 13.1613C86.8738 5.88643 81.1292 3.05176e-05 72.6597 3.05176e-05ZM72.6597 19.4666C70.2784 19.4666 69.0166 16.6462 69.0166 13.1611C69.0166 9.62577 70.2786 6.76566 72.6597 6.76566C75.0635 6.76566 76.3385 9.62577 76.3385 13.1611C76.3385 16.9687 75.0637 19.4666 72.6597 19.4666Z" fill="black"/>
<path d="M16.7223 19.184C13.2948 19.184 10.5158 17.2322 10.5158 12.2778C10.5158 9.03579 12.3596 6.40758 14.6354 6.40758C16.5984 6.40758 18.1886 8.10811 18.1886 10.2048C18.1886 10.4884 18.1448 10.764 18.0622 11.0233C18.8256 11.6053 19.8542 11.9634 20.9873 11.9634C23.6035 11.9634 25.8923 9.67441 25.8923 7.05741C25.8923 5.9802 25.4045 4.89603 24.7454 4.1454C22.5984 1.63773 19.0859 1.52588e-05 15.104 1.52588e-05C6.75526 1.52588e-05 0 5.88564 0 13.1614C0 21.4501 6.75526 26.3113 15.104 26.3113C19.5235 26.3113 23.4965 24.9553 26.2619 22.4527L23.2461 17.2356C21.6713 18.5931 19.3331 19.1841 16.7225 19.1841" fill="black"/>
<path d="M105.472 19.184C102.482 19.184 99.8939 18.5525 98.8006 15.7686C100.245 16.511 102.172 16.6836 104.253 16.6836H104.254C110.798 16.6836 114.641 13.1109 114.641 8.17589L114.643 8.17513C114.643 3.65598 111.33 3.05176e-05 103.853 3.05176e-05C95.5041 3.05176e-05 88.748 5.88565 88.748 13.1614C88.748 21.4501 95.5041 26.3113 103.853 26.3113C108.272 26.3113 112.245 24.9553 115.011 22.4527L111.995 17.2356C110.42 18.5931 108.082 19.1842 105.471 19.1842M98.3529 11.0997C98.7801 8.49474 100.681 6.53904 103.777 6.53904C105.847 6.53904 107.253 7.37217 107.253 8.40231C107.253 10.1222 105.076 11.513 101.866 11.513C100.454 11.513 99.2849 11.385 98.3448 11.158L98.3529 11.0997Z" fill="black"/>
<path d="M140.134 17.236C138.559 18.5927 136.22 19.1845 133.61 19.1845C130.621 19.1845 128.033 18.553 126.939 15.7684C128.383 16.5116 130.31 16.6842 132.392 16.6842C138.937 16.6842 142.779 13.1115 142.779 8.17664L142.781 8.17589C142.781 3.65674 139.469 3.05176e-05 131.991 3.05176e-05C123.642 3.05176e-05 116.887 5.88641 116.887 13.1622C116.887 21.4508 123.642 26.312 131.991 26.312C136.411 26.312 140.383 24.9553 143.149 22.4535L140.134 17.2364L140.134 17.236ZM126.492 11.0999C126.919 8.49493 128.82 6.53923 131.915 6.53923C133.987 6.53923 135.392 7.37236 135.392 8.4025C135.392 10.1224 133.215 11.5132 130.005 11.5132C128.593 11.5132 127.424 11.3852 126.483 11.1582L126.492 11.0999Z" fill="black"/>
</svg>
